<?xml version="1.0" encoding="UTF-8" standalone="no"?>
<svg
   xmlns:dc="http://purl.org/dc/elements/1.1/"
   xmlns:cc="http://creativecommons.org/ns#"
   xmlns:rdf="http://www.w3.org/1999/02/22-rdf-syntax-ns#"
   xmlns:svg="http://www.w3.org/2000/svg"
   xmlns="http://www.w3.org/2000/svg"
   xmlns:sodipodi="http://sodipodi.sourceforge.net/DTD/sodipodi-0.dtd"
   xmlns:inkscape="http://www.inkscape.org/namespaces/inkscape"
   version="1.1"
   id="Your_Icon"
   x="0px"
   y="0px"
   width="100px"
   height="100px"
   viewBox="0 0 100 100"
   enable-background="new 0 0 100 100"
   xml:space="preserve"
   inkscape:version="0.48.4 r9939"
   sodipodi:docname="snowflake.svg"><metadata
   id="metadata19"><rdf:RDF><cc:Work
       rdf:about=""><dc:format>image/svg+xml</dc:format><dc:type
         rdf:resource="http://purl.org/dc/dcmitype/StillImage" /></cc:Work></rdf:RDF></metadata><defs
   id="defs17" /><sodipodi:namedview
   pagecolor="#ffffff"
   bordercolor="#666666"
   borderopacity="1"
   objecttolerance="10"
   gridtolerance="10"
   guidetolerance="10"
   inkscape:pageopacity="0"
   inkscape:pageshadow="2"
   inkscape:window-width="640"
   inkscape:window-height="480"
   id="namedview15"
   showgrid="false"
   inkscape:zoom="2.36"
   inkscape:cx="50"
   inkscape:cy="50"
   inkscape:window-x="0"
   inkscape:window-y="0"
   inkscape:window-maximized="0"
   inkscape:current-layer="Your_Icon" />
<g
   id="g3"
   style="fill:#ffffff">
	<g
   id="g5"
   style="fill:#ffffff">
		<g
   id="g7"
   style="fill:#ffffff">
			<g
   id="g9"
   style="fill:#ffffff">
			</g>
		</g>
		<g
   id="g11"
   style="fill:#ffffff">
		</g>
	</g>
</g>
<path
   d="M90.023,56.478c-0.33-1.237-1.598-1.979-2.845-1.642l-16.815,4.506l-16.183-9.343l16.18-9.341l16.817,4.503  c0.201,0.054,0.403,0.08,0.602,0.08c1.026,0,1.965-0.685,2.242-1.723c0.332-1.239-0.403-2.512-1.643-2.844l-12.328-3.301  l11.556-6.671c1.111-0.642,1.492-2.062,0.851-3.173c-0.642-1.112-2.065-1.49-3.173-0.851L73.728,33.35l3.307-12.331  c0.332-1.239-0.402-2.513-1.642-2.845c-1.241-0.331-2.513,0.404-2.845,1.642l-4.51,16.819l-16.181,9.342V27.294L64.17,14.982  c0.907-0.907,0.907-2.378,0-3.285c-0.908-0.907-2.377-0.907-3.285,0l-9.027,9.027V7.381c0-1.283-1.04-2.323-2.322-2.323  s-2.323,1.04-2.323,2.323v13.341l-9.024-9.025c-0.907-0.906-2.378-0.906-3.285,0c-0.907,0.907-0.907,2.378,0,3.285l12.31,12.309  v18.685l-16.179-9.341l-4.508-16.817c-0.333-1.239-1.605-1.972-2.845-1.642c-1.239,0.333-1.974,1.606-1.642,2.845l3.305,12.33  l-11.555-6.671c-1.109-0.641-2.531-0.26-3.173,0.85c-0.641,1.111-0.26,2.531,0.851,3.173l11.553,6.67l-12.327,3.303  c-1.239,0.332-1.975,1.606-1.643,2.845c0.278,1.038,1.217,1.722,2.242,1.722c0.199,0,0.401-0.026,0.603-0.08l16.814-4.506  l16.182,9.343L28.709,59.34l-16.817-4.504c-1.242-0.337-2.512,0.403-2.845,1.643c-0.332,1.238,0.404,2.513,1.643,2.844l12.329,3.303  l-11.553,6.67c-1.111,0.642-1.492,2.062-0.851,3.173c0.431,0.745,1.211,1.162,2.014,1.162c0.394,0,0.793-0.101,1.159-0.312  l11.554-6.671l-3.305,12.327c-0.332,1.239,0.403,2.513,1.642,2.845c0.202,0.055,0.404,0.08,0.603,0.08  c1.025,0,1.964-0.685,2.242-1.722l4.507-16.814l16.18-9.342v18.686l-12.31,12.31c-0.907,0.907-0.907,2.378,0,3.285  c0.906,0.906,2.377,0.906,3.285,0l9.024-9.024v13.342c0,1.283,1.04,2.322,2.323,2.322s2.322-1.039,2.322-2.322V79.276l9.027,9.027  c0.454,0.453,1.048,0.68,1.643,0.68s1.188-0.227,1.643-0.68c0.907-0.907,0.907-2.378,0-3.285L51.857,72.706V54.021l16.181,9.342  l4.51,16.816c0.278,1.038,1.217,1.722,2.242,1.722c0.198,0,0.401-0.025,0.603-0.08c1.239-0.332,1.974-1.605,1.642-2.845  l-3.307-12.328l11.557,6.672c0.365,0.211,0.765,0.312,1.159,0.312c0.803,0,1.583-0.417,2.014-1.162  c0.642-1.11,0.261-2.531-0.851-3.173l-11.554-6.67l12.329-3.305C89.62,58.99,90.355,57.717,90.023,56.478z"
   id="path13"
   style="fill:#ffffff" />
</svg>
