<?xml version="1.0" encoding="UTF-8" standalone="no"?>
<svg
   xmlns:dc="http://purl.org/dc/elements/1.1/"
   xmlns:cc="http://creativecommons.org/ns#"
   xmlns:rdf="http://www.w3.org/1999/02/22-rdf-syntax-ns#"
   xmlns:svg="http://www.w3.org/2000/svg"
   xmlns="http://www.w3.org/2000/svg"
   xmlns:sodipodi="http://sodipodi.sourceforge.net/DTD/sodipodi-0.dtd"
   xmlns:inkscape="http://www.inkscape.org/namespaces/inkscape"
   version="1.1"
   id="Layer_1"
   x="0px"
   y="0px"
   width="100px"
   height="100px"
   viewBox="0 0 100 100"
   enable-background="new 0 0 100 100"
   xml:space="preserve"
   inkscape:version="0.48.4 r9939"
   sodipodi:docname="rain.svg"><metadata
   id="metadata8"><rdf:RDF><cc:Work
       rdf:about=""><dc:format>image/svg+xml</dc:format><dc:type
         rdf:resource="http://purl.org/dc/dcmitype/StillImage" /></cc:Work></rdf:RDF></metadata><defs
   id="defs6" /><sodipodi:namedview
   pagecolor="#ffffff"
   bordercolor="#666666"
   borderopacity="1"
   objecttolerance="10"
   gridtolerance="10"
   guidetolerance="10"
   inkscape:pageopacity="0"
   inkscape:pageshadow="2"
   inkscape:window-width="640"
   inkscape:window-height="480"
   id="namedview4"
   showgrid="false"
   inkscape:zoom="2.36"
   inkscape:cx="50"
   inkscape:cy="50"
   inkscape:window-x="0"
   inkscape:window-y="0"
   inkscape:window-maximized="0"
   inkscape:current-layer="Layer_1" />
<path
   id="umbrella_rain"
   d="M48.335,56.88v25.519c-0.008,0.838-0.295,5.014-5.005,5.014s-4.994-4.176-5.005-5.003  c0-0.919-0.744-1.669-1.668-1.669c-0.921,0-1.666,0.75-1.666,1.669c0,2.884,1.742,8.338,8.339,8.338c6.598,0,8.34-5.454,8.34-8.338  V56.88c-0.498,0.297-1.045,0.513-1.669,0.513C49.379,57.393,48.83,57.177,48.335,56.88z M51.67,17.451v-1.751  c0-0.923-0.748-1.669-1.669-1.669s-1.666,0.746-1.666,1.669v1.751c0.555-0.019,1.104-0.084,1.666-0.084  C50.562,17.367,51.112,17.432,51.67,17.451z M50.001,20.701c-22.097,0-40.027,18.619-40.027,33.356c0-3.684,4.48-6.671,10.006-6.671  c5.526,0,10.006,2.99,10.006,6.671c0-3.684,4.48-6.671,10.005-6.671c5.526,0,10.01,2.987,10.01,6.671  c0-3.684,4.483-6.671,10.007-6.671s10.007,2.99,10.007,6.671c0-3.684,4.482-6.671,10.004-6.671c5.523,0,10.007,2.99,10.007,6.671  C90.028,39.323,72.099,20.701,50.001,20.701z M82.838,21.982c1.047,0.53,2.325,0.108,2.856-0.941c0.531-1.046,0.18-5.067,0.18-5.067  s-3.445,2.103-3.974,3.152C81.372,20.171,81.792,21.45,82.838,21.982z M69.732,21.982c1.046,0.53,2.324,0.108,2.855-0.941  c0.531-1.046,0.18-5.067,0.18-5.067s-3.445,2.103-3.974,3.152C68.266,20.171,68.687,21.45,69.732,21.982z M60.168,15.745  c1.046,0.53,2.325,0.108,2.856-0.941c0.531-1.044,0.18-5.065,0.18-5.065s-3.445,2.102-3.974,3.151  C58.701,13.935,59.122,15.212,60.168,15.745z M37.674,15.745c1.046,0.53,2.324,0.108,2.857-0.941  c0.53-1.044,0.178-5.065,0.178-5.065s-3.447,2.102-3.974,3.151C36.208,13.935,36.627,15.212,37.674,15.745z M25.067,16.918  c1.045,0.53,2.323,0.108,2.856-0.941c0.53-1.044,0.179-5.067,0.179-5.067s-3.443,2.104-3.973,3.155  C23.602,15.11,24.021,16.388,25.067,16.918z M13.411,25.1c1.046,0.53,2.324,0.108,2.857-0.941c0.527-1.046,0.179-5.067,0.179-5.067  S13,21.195,12.473,22.243C11.943,23.289,12.366,24.57,13.411,25.1z"
   style="fill:#ffffff" />
</svg>
