<?xml version="1.0" encoding="UTF-8" standalone="no"?>
<svg
   xmlns:dc="http://purl.org/dc/elements/1.1/"
   xmlns:cc="http://creativecommons.org/ns#"
   xmlns:rdf="http://www.w3.org/1999/02/22-rdf-syntax-ns#"
   xmlns:svg="http://www.w3.org/2000/svg"
   xmlns="http://www.w3.org/2000/svg"
   xmlns:sodipodi="http://sodipodi.sourceforge.net/DTD/sodipodi-0.dtd"
   xmlns:inkscape="http://www.inkscape.org/namespaces/inkscape"
   version="1.1"
   id="Layer_1"
   x="0px"
   y="0px"
   width="100"
   height="100"
   viewBox="0 0 100 99.999999"
   enable-background="new 0 0 50 50"
   xml:space="preserve"
   inkscape:version="0.48.3.1 r9886"
   sodipodi:docname="ff6a1f8c-04cf-4d32-9205-96033ad22cbf.svg"><metadata
   id="metadata16"><rdf:RDF><cc:Work
       rdf:about=""><dc:format>image/svg+xml</dc:format><dc:type
         rdf:resource="http://purl.org/dc/dcmitype/StillImage" /></cc:Work></rdf:RDF></metadata><defs
   id="defs14" /><sodipodi:namedview
   pagecolor="#ffffff"
   bordercolor="#666666"
   borderopacity="1"
   objecttolerance="10"
   gridtolerance="10"
   guidetolerance="10"
   inkscape:pageopacity="0"
   inkscape:pageshadow="2"
   inkscape:window-width="1920"
   inkscape:window-height="1007"
   id="namedview12"
   showgrid="false"
   fit-margin-top="0"
   fit-margin-left="0"
   fit-margin-right="0"
   fit-margin-bottom="0"
   inkscape:zoom="4.72"
   inkscape:cx="5.5469746"
   inkscape:cy="42.077076"
   inkscape:window-x="0"
   inkscape:window-y="25"
   inkscape:window-maximized="1"
   inkscape:current-layer="Layer_1" />
<g
   id="snow"
   transform="matrix(2,0,0,2,-0.28257627,2.6538255)"
   style="fill:#ffffff">
	<path
   d="M 39.272,12.508 C 38.168,9.068 35.519,6.742 32.583,6.742 31.424,6.734 30.468,7.02 29.492,7.604 27.501,4.939 24.539,3.385 21.343,3.385 c -5.022,0 -9.262,3.879 -10.267,9.149 -2.215,0.272 -4.272,1.176 -5.869,2.668 -1.972,1.827 -3.053,4.277 -3.053,6.904 0,5.361 4.651,9.722 10.367,9.722 h 7.207 c 0.685,0 1.244,-0.556 1.244,-1.244 0,-0.686 -0.559,-1.241 -1.244,-1.241 h -7.207 c -4.346,0 -7.882,-3.247 -7.882,-7.237 0,-1.927 0.803,-3.728 2.266,-5.083 1.421,-1.329 3.316,-2.083 5.344,-2.127 0.682,-0.015 1.229,-0.58 1.213,-1.269 -0.002,-0.062 -0.028,-0.119 -0.042,-0.183 0.622,-4.333 3.963,-7.572 7.922,-7.572 2.737,0 5.258,1.545 6.755,4.129 l 0.767,1.324 1.139,-1.018 c 0.817,-0.732 1.727,-1.081 2.562,-1.078 1.887,0 3.612,1.66 4.376,4.107 -0.021,0.094 -0.055,0.177 -0.058,0.276 -0.009,0.686 0.541,1.25 1.224,1.259 4.274,0.067 7.751,3.31 7.751,7.234 0,3.73 -3.162,6.89 -7.203,7.192 -0.682,0.052 -1.197,0.646 -1.146,1.331 0.051,0.655 0.595,1.149 1.237,1.149 0.033,0 0.063,0 0.096,0 5.331,-0.397 9.505,-4.645 9.505,-9.668 -0.006,-4.917 -3.987,-8.99 -9.075,-9.601 z"
   id="path4"
   inkscape:connector-curvature="0"
   style="fill:#ffffff" />
	<path
   d="m 28.559,27.623 c -2.513,0 -4.556,2.045 -4.556,4.558 0,2.516 2.043,4.556 4.556,4.556 2.513,0 4.557,-2.04 4.557,-4.556 -10e-4,-2.513 -2.045,-4.558 -4.557,-4.558 z m 0,6.629 c -1.142,0 -2.07,-0.932 -2.07,-2.071 0,-1.143 0.929,-2.071 2.07,-2.071 1.141,0 2.072,0.929 2.072,2.071 0,1.139 -0.931,2.071 -2.072,2.071 z"
   id="path6"
   inkscape:connector-curvature="0"
   style="fill:#ffffff" />
	<path
   d="m 20.413,36.764 c -2.025,0 -3.676,1.648 -3.676,3.675 0,2.028 1.651,3.679 3.676,3.679 2.027,0 3.678,-1.65 3.678,-3.679 0,-2.027 -1.651,-3.675 -3.678,-3.675 z m 0,4.867 c -0.658,0 -1.188,-0.536 -1.188,-1.192 0,-0.655 0.531,-1.188 1.188,-1.188 0.658,0 1.193,0.532 1.193,1.188 0,0.656 -0.539,1.192 -1.193,1.192 z"
   id="path8"
   inkscape:connector-curvature="0"
   style="fill:#ffffff" />
	<path
   d="m 36.289,35.108 c -1.803,0 -3.271,1.466 -3.271,3.269 0,1.808 1.47,3.273 3.271,3.273 1.804,0 3.273,-1.466 3.273,-3.273 0,-1.803 -1.466,-3.269 -3.273,-3.269 z m 0,4.059 c -0.434,0 -0.783,-0.354 -0.783,-0.786 0,-0.432 0.351,-0.784 0.783,-0.784 0.436,0 0.786,0.353 0.786,0.784 0,0.431 -0.349,0.786 -0.786,0.786 z"
   id="path10"
   inkscape:connector-curvature="0"
   style="fill:#ffffff" />
</g>
</svg>