<?xml version="1.0" encoding="UTF-8" standalone="no"?>
<svg
   xmlns:dc="http://purl.org/dc/elements/1.1/"
   xmlns:cc="http://creativecommons.org/ns#"
   xmlns:rdf="http://www.w3.org/1999/02/22-rdf-syntax-ns#"
   xmlns:svg="http://www.w3.org/2000/svg"
   xmlns="http://www.w3.org/2000/svg"
   xmlns:sodipodi="http://sodipodi.sourceforge.net/DTD/sodipodi-0.dtd"
   xmlns:inkscape="http://www.inkscape.org/namespaces/inkscape"
   version="1.1"
   id="Layer_1"
   x="0px"
   y="0px"
   width="100px"
   height="100px"
   viewBox="0 0 100 100"
   enable-background="new 0 0 100 100"
   xml:space="preserve"
   inkscape:version="0.48.3.1 r9886"
   sodipodi:docname="1e3619a8-ffdd-4b28-b4e3-78070535777f.svg"><metadata
   id="metadata9"><rdf:RDF><cc:Work
       rdf:about=""><dc:format>image/svg+xml</dc:format><dc:type
         rdf:resource="http://purl.org/dc/dcmitype/StillImage" /><dc:title></dc:title></cc:Work></rdf:RDF></metadata><defs
   id="defs7" /><sodipodi:namedview
   pagecolor="#ffffff"
   bordercolor="#666666"
   borderopacity="1"
   objecttolerance="10"
   gridtolerance="10"
   guidetolerance="10"
   inkscape:pageopacity="0"
   inkscape:pageshadow="2"
   inkscape:window-width="640"
   inkscape:window-height="480"
   id="namedview5"
   showgrid="false"
   inkscape:zoom="2.36"
   inkscape:cx="50"
   inkscape:cy="50"
   inkscape:window-x="0"
   inkscape:window-y="25"
   inkscape:window-maximized="0"
   inkscape:current-layer="Layer_1" />
<path
   d="M80.909,43.213c-1.412,0-2.786,0.168-4.103,0.481c0.045-0.564,0.068-1.135,0.068-1.711c0-11.809-9.573-21.383-21.383-21.383  c-8.698,0-16.183,5.194-19.523,12.649c-3.499-1.975-7.538-3.104-11.842-3.104C10.802,30.146,0,40.75,0,54.074  C0,67.4,10.802,79,24.127,79c0.681,0,2.021,0,2.021,0s43.337,0,55.717,0S100,69.752,100,60.607  C100,50.89,90.626,43.213,80.909,43.213z M42.981,70.531L47.233,54h-9.979l19.772-21.648L52.102,48h10.645L42.981,70.531z"
   id="path3"
   style="fill:#ffffff" />
</svg>